<svg id="Capa_1" data-name="Capa 1" xmlns="http://www.w3.org/2000/svg" viewBox="0 0 595.28 595.28"><defs><style>.cls-1{fill:#3d2b64;}.cls-2{fill:#a87fb7;}</style></defs><rect class="cls-1" width="595.28" height="595.28" rx="95.17"/><path class="cls-2" d="M347,437.8h-62.6l-24.88-64.74H145.63L122.11,437.8h-61l111-285h60.85ZM241.08,325.05,201.82,219.29,163.33,325.05Z"/><path class="cls-2" d="M476.81,372.09l54.43,9.14q-10.5,29.94-33.15,45.58t-56.66,15.65q-53.85,0-79.7-35.18-20.42-28.18-20.42-71.15,0-51.33,26.83-80.38T436,226.68q46.08,0,72.71,30.43t25.46,93.21H397.3q.58,24.3,13.22,37.81T442,401.64q12.83,0,21.58-7T476.81,372.09Zm3.11-55.21q-.59-23.72-12.25-36.06a37.56,37.56,0,0,0-28.38-12.34q-17.88,0-29.55,13t-11.47,35.38Z"/></svg>