<svg id="Capa_1" data-name="Capa 1" xmlns="http://www.w3.org/2000/svg" xmlns:xlink="http://www.w3.org/1999/xlink" viewBox="0 0 595.28 595.28"><defs><style>.cls-1{fill:#fff;}.cls-2{fill:url(#Degradado_sin_nombre_2);}.cls-3{fill:#4e4d4d;}</style><linearGradient id="Degradado_sin_nombre_2" x1="-1934.45" y1="604.5" x2="-1934.45" y2="604.26" gradientTransform="matrix(2500, 0, 0, -2250, 4836415.72, 1360143.05)" gradientUnits="userSpaceOnUse"><stop offset="0" stop-color="#2dabe3"/><stop offset="0.48" stop-color="#2da9e1"/><stop offset="0.66" stop-color="#2aa3dd"/><stop offset="0.8" stop-color="#1f96d4"/><stop offset="0.91" stop-color="#1685c8"/><stop offset="1" stop-color="#0d71b9"/></linearGradient></defs><path class="cls-1" d="M476.22,93.44A53.64,53.64,0,0,1,529.8,147V444.65a53.65,53.65,0,0,1-53.58,53.58H119.06a53.64,53.64,0,0,1-53.58-53.58V147a53.63,53.63,0,0,1,53.58-53.57H476.22"/><path class="cls-2" d="M476.22,93.44A53.64,53.64,0,0,1,529.8,147V444.65a53.65,53.65,0,0,1-53.58,53.58H119.06a53.64,53.64,0,0,1-53.58-53.58V147a53.63,53.63,0,0,1,53.58-53.57Zm0-65.48H119.06C53.57,28,0,81.53,0,147V444.65c0,65.48,53.57,119.06,119.06,119.06H476.22c65.48,0,119.06-53.58,119.06-119.06V147C595.28,81.53,541.7,28,476.22,28Z"/><path class="cls-3" d="M464.31,153V438.7H315.5V367.26h83.33V218.45H315.5V153Z"/><path class="cls-3" d="M279.78,153v65.48H196.44V367.26h83.34V438.7H131V153Z"/></svg>