<svg id="Capa_1" data-name="Capa 1" xmlns="http://www.w3.org/2000/svg" viewBox="0 0 595.28 595.28"><defs><style>.cls-1{fill:#4f3030;}.cls-2{fill:#e03b5d;}</style></defs><rect class="cls-1" y="-2.09" width="595.28" height="595.28" rx="95.17"/><path class="cls-2" d="M152.44,440.76V152.62h59.38V440.76Z"/><path class="cls-2" d="M442.84,440.76H390.48V410.09c-17.59,24.13-42.88,35.38-66.6,35.38q-36.72,0-62.89-29T234.81,335.6q0-53.07,25.47-80.68t64.4-27.61q35.7,0,61.78,29.08V152.62h56.37V440.76ZM292.38,331.87q0,33.4,9.43,48.35,13.63,21.61,38.11,21.62,19.45,0,33.1-16.22t13.65-48.45q0-36-13.24-51.79t-33.9-15.82q-20.07,0-33.61,15.63T292.38,331.87Z"/></svg>