<svg id="Capa_1" data-name="Capa 1" xmlns="http://www.w3.org/2000/svg" viewBox="0 0 595.28 595.28"><defs><style>.cls-1{fill:#3e2d66;}.cls-2{fill:#8c5ca2;}</style></defs><rect class="cls-1" width="595.28" height="595.28" rx="95.17"/><path class="cls-2" d="M106,442.66v-290h94q53.42,0,69.64,4.35,24.93,6.53,41.75,28.39t16.82,56.49q0,26.7-9.7,44.91t-24.63,28.58a85,85,0,0,1-30.37,13.76q-21,4.14-60.74,4.15H164.53V442.66Zm58.56-241V284h32.05q34.62,0,46.29-4.56a38.45,38.45,0,0,0,18.3-14.24,39,39,0,0,0,6.63-22.56q0-15.82-9.3-26.11A40.45,40.45,0,0,0,235,203.66q-10.49-2-42.14-2Z"/><path class="cls-2" d="M408.79,442.66h-55.6V232.55h51.64v29.87q13.25-21.17,23.84-27.9a43.9,43.9,0,0,1,24-6.72q19,0,36.6,10.48L472.1,286.76Q458,277.65,446,277.65q-11.67,0-19.78,6.43t-12.76,23.25q-4.67,16.82-4.65,70.43v64.9Z"/></svg>