<svg id="Capa_1" data-name="Capa 1" xmlns="http://www.w3.org/2000/svg" viewBox="0 0 595.28 595.28"><defs><style>.cls-1{fill:#2c4a97;}.cls-2{fill:#77c8da;}</style></defs><rect class="cls-1" width="595.28" height="595.28" rx="95.17"/><path class="cls-2" d="M84.8,440.12V150.48c95.93,0,143.48-1,163.39,4.35q24.88,6.53,41.68,28.35c21.69,28.2,20.73,75.68,7.12,101.26-12.32,23.12-33.1,37.52-54.93,42.28-25.7,5.09-63.74,4.15-98.78,4.15V440.12Zm58.48-240.64v82.19c59.26,0,82.36,1.92,96.51-18.77,9.39-13.73,9.19-35.47-2.67-48.6C222.3,197.91,206.11,199.48,143.28,199.48Z"/><path class="cls-2" d="M314.49,380.26l55.72-8.5c5.18,23.63,21.12,33,44.84,33,18.11,0,39.71-4.55,39.71-22.73,0-12.22-10.22-14.91-22.52-17.78q-67.17-14.81-85.15-27.06-24.9-17-24.89-47.22,0-27.27,21.53-45.84t66.78-18.57c45.84,0,80,11,92.86,55.52L451,290.76q-3.36-12.24-12.74-18.77c-14.31-9.94-47.13-7.53-58.19-.39-7.89,5.42-8.78,15.34-.79,21.33,16.08,11.85,84.77,16.17,113.8,40.31q17.39,14.82,17.39,41.29,0,28.85-24.1,49.59t-71.33,20.74q-42.87,0-67.86-17.38T314.49,380.26Z"/></svg>