<svg id="Capa_1" data-name="Capa 1" xmlns="http://www.w3.org/2000/svg" viewBox="0 0 595.28 595.28"><defs><style>.cls-1{fill:#592b49;}.cls-2{fill:#d92686;}</style></defs><rect class="cls-1" width="595.28" height="595.28" rx="95.17"/><path class="cls-2" d="M64.78,438l97.53-148.92L73.93,152.62h67.35l57.24,91.68,56.06-91.68h66.76L232.58,291.21,330.1,438H260.61l-63.26-98.7L133.89,438Z"/><path class="cls-2" d="M529,438h-50.8V407.62Q465.5,425.34,448.28,434a76.64,76.64,0,0,1-34.75,8.67q-35.62,0-61-28.71t-25.41-80.1q0-52.56,24.72-79.91t62.49-27.35q34.65,0,60,28.81V152.62H529V438ZM383,330.15q0,33.09,9.15,47.88,13.23,21.42,37,21.41,18.88,0,32.12-16.05t13.24-48q0-35.62-12.85-51.29t-32.89-15.67q-19.47,0-32.61,15.47T383,330.15Z"/></svg>